<svg width="419" height="354" viewBox="0 0 419 354" fill="none" xmlns="http://www.w3.org/2000/svg">
<path fill-rule="evenodd" clip-rule="evenodd" d="M217.286 338.774C173.948 335.837 129.545 346.155 93.0618 321.703C48.199 291.636 -5.77049 248.849 0.499734 193.484C6.73572 138.423 78.37 127.406 119.114 91.6773C152.531 62.3723 171.96 15.831 214.502 5.82128C265.531 -6.18598 323.062 -0.987636 362.734 34.354C404.255 71.3417 419.09 130.928 419 187.994C418.912 244.432 406.309 307.016 362.253 339.949C321.342 370.529 267.405 342.173 217.286 338.774Z" fill="black" fill-opacity="0.25"/>
<path d="M332.14 43H147.86C144.071 43 141 46.0705 141 49.8581V278.141C141 281.929 144.071 285 147.86 285H332.14C335.928 285 339 281.929 339 278.141V49.8581C339 46.0705 335.928 43 332.14 43Z" fill="#2F2E41"/>
<path d="M315.521 55H164.478C158.139 55 153 60.1603 153 66.5258V262.474C153 268.84 158.139 274 164.478 274H315.521C321.86 274 327 268.84 327 262.474V66.5258C327 60.1603 321.86 55 315.521 55Z" fill="white"/>
<path d="M326 287V294.355C326 300.79 342.11 306 361.999 306C381.89 306 398 300.79 398 294.355V287H326Z" fill="#DCB533"/>
<path d="M362.499 299C342.894 299 327 293.628 327 287C327 280.372 342.894 275 362.499 275C382.106 275 398 280.372 398 287C398 293.628 382.106 299 362.499 299Z" fill="#FFD037"/>
<path d="M392 287C392 292.525 378.781 297 362.514 297C346.245 297 333 292.525 333 287C333 281.475 346.219 277 362.486 277C378.754 277 392 281.475 392 287Z" fill="#F0B238"/>
<path d="M330 277V284.356C330 290.79 346.11 296 366 296C385.89 296 402 290.79 402 284.356V277H330Z" fill="#DCB533"/>
<path d="M366.001 289C346.118 289 330 283.628 330 277C330 270.374 346.118 265 366.001 265C385.882 265 402 270.374 402 277C402 283.628 385.882 289 366.001 289Z" fill="#FFD037"/>
<path d="M328 267V274.742C328 281.516 344.11 287 364 287C383.89 287 400 281.516 400 274.742V267H328Z" fill="#DCB533"/>
<path d="M364 279C344.118 279 328 273.627 328 266.999C328 260.372 344.118 255 364 255C383.882 255 400 260.372 400 266.999C400 273.627 383.882 279 364 279Z" fill="#FFD037"/>
<path d="M322 257V264.742C322 271.515 337.885 277 357.5 277C377.113 277 393 271.515 393 264.742V257H322Z" fill="#DCB533"/>
<path d="M357.499 269C337.894 269 322 263.628 322 257C322 250.374 337.894 245 357.499 245C377.106 245 393 250.374 393 257C393 263.628 377.106 269 357.499 269Z" fill="#FFD037"/>
<path d="M357.5 267C341.207 267 328 262.748 328 257.5C328 252.254 341.207 248 357.5 248C373.792 248 387 252.254 387 257.5C387 262.748 373.792 267 357.5 267Z" fill="#F0B238"/>
<path d="M325 248V255.355C325 261.79 341.11 267 361 267C380.89 267 397 261.79 397 255.355V248H325Z" fill="#DCB533"/>
<path d="M361 259C341.118 259 325 253.85 325 247.5C325 241.148 341.118 236 361 236C380.882 236 397 241.148 397 247.5C397 253.85 380.882 259 361 259Z" fill="#FFD037"/>
<path d="M361 257C344.984 257 332 252.746 332 247.5C332 242.252 344.984 238 361 238C377.017 238 390 242.252 390 247.5C390 252.746 377.017 257 361 257Z" fill="#DCB533"/>
<path d="M330 238V245.742C330 252.516 346.11 258 365.999 258C385.889 258 402 252.516 402 245.742V238H330Z" fill="#DCB533"/>
<path d="M365.999 250C346.118 250 330 244.85 330 238.5C330 232.148 346.118 227 365.999 227C385.882 227 402 232.148 402 238.5C402 244.85 385.882 250 365.999 250Z" fill="#FFD037"/>
<path d="M366.001 248C349.983 248 337 243.746 337 238.5C337 233.254 349.983 229 366.001 229C382.017 229 395 233.254 395 238.5C395 243.746 382.017 248 366.001 248Z" fill="#DCB533"/>
<path d="M309.434 302L303.792 307.759L296 311.874L296.805 319L311.579 317.357L313.46 313.517L312.924 310.224L314 305.017L309.434 302Z" fill="#FFCDCD"/>
<path d="M297.665 315.975L297.171 310L280.201 317.598C280.201 317.598 278.887 321.117 282.976 321.661C287.065 322.205 314.256 322.2 314.256 320.85C314.256 319.499 315 312.564 315 312.564L298.512 317.059L297.655 315.975H297.665Z" fill="#DFDFDF"/>
<path d="M331 283.877L335.322 291.063L337.427 300.017L344.804 301L347 285.572L343.633 282.692L340.184 282.409L335.225 280L331 283.877Z" fill="#FFCDCD"/>
<path d="M342.036 298.868L336 297.843L339.493 315.405C339.493 315.405 342.672 317.492 344.178 313.847C345.686 310.201 352.159 285.07 350.819 284.739C349.48 284.407 342.786 282 342.786 282L343.317 298.351L342.041 298.873L342.036 298.868Z" fill="#DFDFDF"/>
<path d="M377.33 215C377.33 215 384.154 232.685 379.191 239.82C374.23 246.954 350.955 250.988 350.955 250.988L341.334 259.983L315.894 309L301 305.589L322.101 255.333C322.101 255.333 334.511 235.17 339.167 232.374C343.825 229.579 352.488 219.099 352.488 219.099L377.33 215Z" fill="#3669A4"/>
<path d="M345.33 214L338.276 219.435L329.81 222.507C329.81 222.507 292.18 231.79 302.932 252.819C313.684 273.847 329.663 289 329.663 289L343.793 280.959L321.058 248.798L361 224.369L345.33 214Z" fill="#3669A4"/>
<path d="M328.975 189C328.975 189 325.59 201.097 325.841 203.518L320 221.42L329.783 222C329.783 222 336.82 203.65 336.82 202.382C336.82 201.114 341 189.652 341 189.652L328.975 189.001V189Z" fill="#FFCDCD"/>
<path d="M340.677 164.001C340.677 164.001 336.263 165.28 333.143 170.087C330.023 174.896 326 190.413 326 190.413L341.532 192L349 180.173L340.677 164V164.001Z" fill="#8E202D"/>
<path d="M372.456 160L351.251 161.71L340.845 164.071C340.845 164.071 340.27 173.914 339 182.835C338.999 190.715 344.09 193.882 345.111 214.079C351.733 223.671 369.048 220.276 375.797 213.314C382.862 199.296 379.779 193.173 382.862 185.709C388.015 173.228 385.269 162.963 385.269 162.963L372.457 160.001L372.456 160Z" fill="#8E202D"/>
<path d="M352.805 152.772C352.805 152.772 354.252 156.148 353.439 158.723C352.808 160.72 351.111 161.783 351.111 161.783C351.111 161.783 349.734 167.815 356.673 167.997C363.875 168.184 372 160.039 372 160.039L368.449 159.414L365.259 139L352.808 152.774L352.805 152.772Z" fill="#FFCDCD"/>
<path d="M385.137 163C385.137 163 391.917 164.458 392.912 170.886C393.652 175.662 395 193 395 193L378 191.514C378 191.514 378 171.541 385.137 163Z" fill="#8E202D"/>
<path d="M360.98 222.903C360.21 219.557 332 218 332 218L341.466 236C341.466 236 361.748 226.25 360.979 222.903H360.98Z" fill="#C1C0C0"/>
<path d="M341 236L295.58 234.52L288.097 210.854C287.666 209.432 288.727 208 290.209 208H329.91C331.462 208 332.831 209.016 333.281 210.504L341 236Z" fill="#D8D8D8"/>
<path d="M311.001 223C312.105 223 313 222.328 313 221.5C313 220.672 312.105 220 311.001 220C309.896 220 309 220.672 309 221.5C309 222.328 309.896 223 311.001 223Z" fill="#C1C0C0"/>
<path d="M377.769 206.923L379.066 192L391 193.019C391 193.019 389.977 210.598 388.432 213.348C386.886 216.097 361.237 220.835 359.084 221.092C357.867 221.208 356.17 221.504 354.282 222.287C352.611 222.981 351.322 223.834 350.415 224.538C347.78 227.789 339.92 227.41 339.176 225.756C338.633 224.551 339.406 222.747 340.714 221.287C340.714 221.287 345.07 216.987 349.689 216.178L377.769 206.923Z" fill="#FFCDCD"/>
<path d="M358.501 156C366.508 156 373 149.284 373 140.999C373 132.716 366.508 126 358.501 126C350.492 126 344 132.716 344 140.999C344 149.284 350.492 156 358.501 156Z" fill="#FFCDCD"/>
<path d="M359.968 121.3C359.548 121.55 358.98 121.174 358.845 120.691C358.709 120.209 358.87 119.707 359.023 119.237L359.808 116.867C360.363 115.187 360.955 113.45 362.165 112.171C363.991 110.24 366.884 109.751 369.495 110.108C372.845 110.566 376.152 112.409 377.707 115.456C379.262 118.503 378.602 122.754 375.788 124.66C379.798 129.331 381.199 134.542 380.978 140.736C380.755 146.931 374.11 152.637 369.778 157C368.81 156.404 367.933 153.608 368.464 152.598C368.994 151.583 368.236 150.411 368.89 149.477C369.55 148.543 370.1 150.028 369.433 149.1C369.013 148.511 370.654 147.163 370.032 146.812C367.007 145.112 366.003 141.288 364.101 138.354C361.812 134.817 357.895 132.422 353.741 132.028C351.459 131.808 349.047 132.202 347.171 133.551C345.296 134.899 344.086 137.307 344.517 139.595C343.394 138.435 342.833 136.735 343.043 135.119C343.252 133.5 344.234 132.008 345.616 131.187C344.776 128.36 345.493 125.105 347.449 122.917C349.404 120.729 357.327 121.099 360.178 121.676" fill="#7E686B"/>
<path d="M360 132C363.78 132.411 366.51 135.716 368.814 138.771C370.142 140.53 371.532 142.475 371.5 144.689C371.47 146.927 369.987 148.841 369.277 150.961C368.122 154.428 369.246 158.549 372 160.918C369.277 161.442 366.337 159.379 365.867 156.622C365.318 153.411 367.733 150.319 367.442 147.076C367.189 144.22 364.96 142.02 363.064 139.888C361.168 137.749 359.388 134.918 360.259 132.187" fill="#7E686B"/>
<path d="M290.793 83H180.207C177.884 83 176 84.7909 176 87C176 89.2091 177.884 91 180.207 91H290.793C293.116 91 295 89.2091 295 87C295 84.7909 293.116 83 290.793 83Z" fill="#8E202D"/>
<path d="M284.165 120H183.835C181.165 120 179 122.239 179 125V125C179 127.761 181.165 130 183.835 130H284.165C286.835 130 289 127.761 289 125C289 122.239 286.835 120 284.165 120Z" fill="#E6E6E6"/>
<path d="M266.8 160H185.2C182.88 160 181 161.791 181 164C181 166.209 182.88 168 185.2 168H266.8C269.12 168 271 166.209 271 164C271 161.791 269.12 160 266.8 160Z" fill="#E6E6E6"/>
<path d="M276.813 198H157.187C154.875 198 153 200.015 153 202.5C153 204.985 154.875 207 157.187 207H276.813C279.125 207 281 204.985 281 202.5C281 200.015 279.125 198 276.813 198Z" fill="#E6E6E6"/>
<path d="M88.0019 192H201V288.635C201 291.043 199.043 293 196.63 293H92.3708C89.9594 293 88 291.045 88 288.635V192H88.0019Z" fill="#D8D8D8"/>
<path d="M92.3681 139H196.631C199.041 139 201 140.944 201 143.34V192H88V143.34C88 140.945 89.9571 139 92.37 139H92.3681Z" fill="#4B5561"/>
<path d="M186.822 149H102.178C100.975 149 100 149.956 100 151.134V179.866C100 181.044 100.975 182 102.178 182H186.822C188.025 182 189 181.044 189 179.866V151.134C189 149.956 188.025 149 186.822 149Z" fill="#95DAF9"/>
<path d="M185.869 149H103.13C101.401 149 100 150.378 100 152.077V153H189V152.077C189 150.378 187.598 149 185.869 149Z" fill="#4EC2F5"/>
<path d="M121.377 206H102.624C101.175 206 100 207.192 100 208.663V224.337C100 225.808 101.175 227 102.624 227H121.377C122.825 227 124 225.808 124 224.337V208.663C124 207.192 122.825 206 121.377 206Z" fill="#B9B9B9"/>
<path d="M121.377 233H102.624C101.175 233 100 234.192 100 235.663V251.337C100 252.808 101.175 254 102.624 254H121.377C122.825 254 124 252.808 124 251.337V235.663C124 234.192 122.825 233 121.377 233Z" fill="#B9B9B9"/>
<path d="M121.377 260H102.624C101.175 260 100 261.192 100 262.662V278.337C100 279.808 101.175 281 102.624 281H121.377C122.825 281 124 279.808 124 278.337V262.662C124 261.192 122.825 260 121.377 260Z" fill="#B9B9B9"/>
<path d="M154.376 206H135.623C134.175 206 133 207.192 133 208.663V224.337C133 225.808 134.175 227 135.623 227H154.376C155.825 227 157 225.808 157 224.337V208.663C157 207.192 155.825 206 154.376 206Z" fill="#B9B9B9"/>
<path d="M154.376 233H135.623C134.175 233 133 234.192 133 235.663V251.337C133 252.808 134.175 254 135.623 254H154.376C155.825 254 157 252.808 157 251.337V235.663C157 234.192 155.825 233 154.376 233Z" fill="#B9B9B9"/>
<path d="M154.376 260H135.623C134.175 260 133 261.192 133 262.662V278.337C133 279.808 134.175 281 135.623 281H154.376C155.825 281 157 279.808 157 278.337V262.662C157 261.192 155.825 260 154.376 260Z" fill="#B9B9B9"/>
<path d="M186.377 206H167.623C166.175 206 165 207.192 165 208.663V224.337C165 225.808 166.175 227 167.623 227H186.377C187.825 227 189 225.808 189 224.337V208.663C189 207.192 187.825 206 186.377 206Z" fill="#B9B9B9"/>
<path d="M168.77 233C166.687 233 165 234.693 165 236.778V277.22C165 279.308 166.688 281 168.77 281H185.23C187.313 281 189 279.307 189 277.22V236.778C189 234.691 187.312 233 185.23 233H168.77Z" fill="#8E202D"/>
<path d="M182 258.32H178.345V262H175.634V258.32H172V255.68H175.634V252H178.345V255.68H182V258.32Z" fill="white"/>
<path d="M204.844 28H273.156C281.349 28 288 34.1733 288 41.7762V46.0942C288 46.5962 287.561 47 287.024 47H190.976C190.435 47 190 46.5926 190 46.0942V41.7762C190 34.1733 196.653 28 204.844 28Z" fill="#EDCC2B"/>
<path d="M190.004 42V46.0423C190.004 46.5731 190.443 47 190.98 47H287.024C287.565 47 288 46.5693 288 46.0423V42H190H190.004Z" fill="#EAB42D"/>
<path d="M243.043 13H234.953C226.141 13 219 19.6924 219 27.9435C219 28.5275 219.504 29 220.127 29H257.871C258.495 29 259 28.5275 259 27.9435C259 19.6886 251.855 13 243.047 13H243.043ZM239.007 26.0761C236.021 26.0761 233.599 23.8068 233.599 21.0093C233.599 18.2118 236.021 15.9426 239.007 15.9426C241.994 15.9426 244.416 18.2118 244.416 21.0093C244.416 23.8068 241.994 26.0761 239.007 26.0761Z" fill="#EDCC2B"/>
</svg>
